<svg width="88" height="88" viewBox="0 0 88 88" fill="none" xmlns="http://www.w3.org/2000/svg">
<path d="M62.9688 14.9693L62.6679 17.0542H64.7745H78.4496V31.1443C77.8533 31.0589 77.2442 31.0147 76.6255 31.0147C69.5724 31.0147 63.8547 36.7324 63.8547 43.7856C63.8547 50.8387 69.5724 56.5564 76.6255 56.5564C77.2442 56.5564 77.8533 56.5123 78.4496 56.4269V70.5172H64.7745H62.6679L62.9688 72.6021C63.0461 73.1379 63.0862 73.6864 63.0862 74.2453C63.0862 80.5825 57.8995 85.747 51.4676 85.747C45.0358 85.747 39.8491 80.5825 39.8491 74.2453C39.8491 73.6864 39.8892 73.1379 39.9665 72.6021L40.2673 70.5172H38.1608H24.4857V56.9768V54.8755L22.4051 55.1705C21.8625 55.2474 21.3069 55.2874 20.7408 55.2874C14.309 55.2874 9.12226 50.1229 9.12226 43.7857C9.12226 37.4485 14.309 32.284 20.7408 32.284C21.3069 32.284 21.8625 32.324 22.4051 32.4009L24.4857 32.6959V30.5946V17.0542H38.1608H40.2673L39.9665 14.9693C39.8892 14.4335 39.8491 13.885 39.8491 13.3261C39.8491 6.98887 45.0358 1.8244 51.4676 1.8244C57.8995 1.8244 63.0862 6.98887 63.0862 13.3261C63.0862 13.885 63.0461 14.4335 62.9688 14.9693Z" stroke="#303030" stroke-width="5.64881"/>
</svg>
